<svg width="64" height="64" viewBox="0 0 64 64" fill="none" xmlns="http://www.w3.org/2000/svg">
<path d="M4.03303 15.743C3.96003 16.02 4.00903 16.316 4.16803 16.555L7.20603 21.113C7.20603 21.114 7.20703 21.114 7.20703 21.115L16.168 34.556L16.184 34.545C16.22 34.6 16.244 34.66 16.293 34.708L20.28 38.695L21.757 40.172C20.17 40.638 19 42.092 19 43.828C19 43.893 19.015 43.954 19.019 44.018C18.954 44.015 18.893 44 18.828 44C16.718 44 15 45.718 15 47.828C15 48.85 15.398 49.812 16.121 50.535L19.465 53.879C19.901 54.315 20.429 54.616 21 54.8V62H23V54.904C24.713 54.524 26 52.997 26 51.172C26 51.107 25.985 51.046 25.981 50.982C26.046 50.985 26.107 51 26.172 51C27.908 51 29.362 49.83 29.829 48.243L31.293 49.707C31.488 49.902 31.744 50 32 50C32.256 50 32.512 49.902 32.707 49.707L34.5 47.914L36 49.414V51H38V49C38 48.734 37.895 48.48 37.707 48.293L33 43.586V40C33 39.734 32.895 39.48 32.707 39.293L28.535 35.121C27.365 33.951 27.365 32.049 28.535 30.879L29 30.414L35.293 36.707C35.48 36.895 35.734 37 36 37H44V62H46V36.414L55.72 26.694L59.707 22.707C60.098 22.316 60.098 21.684 59.707 21.293L55.72 17.306L48.695 10.281L44.708 6.29401C44.317 5.90301 43.685 5.90301 43.294 6.29401L42.754 6.83401L35.354 3.98801L30.361 2.06801C30.233 2.01901 30.102 1.99801 29.973 2.00301C29.968 2.00301 29.963 2.00601 29.958 2.00601C29.835 2.01201 29.714 2.03701 29.602 2.08601C29.562 2.10301 29.532 2.13701 29.494 2.16001C29.313 2.26801 29.157 2.42001 29.073 2.63101L28.5 4.06301L14.858 6.01001C14.592 6.04801 14.354 6.19101 14.195 6.40601C14.036 6.62301 13.969 6.89301 14.012 7.15801L14.489 10.137L4.55203 15.105C4.29603 15.233 4.10703 15.466 4.03303 15.743ZM9.78403 14.727C9.92803 15.137 10 15.562 10 16C10 17.287 9.37303 18.482 8.35303 19.226L6.46003 16.388L9.78403 14.727ZM21.019 31.396C21.649 32.116 22 33.029 22 34C22 34.971 21.649 35.884 21.019 36.604L18.414 34L21.019 31.396ZM24 51.172C24 52.18 23.18 53 22.172 53C21.691 53 21.219 52.805 20.879 52.465L17.535 49.121C17.195 48.781 17 48.31 17 47.828C17 46.82 17.82 46 18.828 46C19.309 46 19.781 46.195 20.121 46.535L23.465 49.879C23.805 50.219 24 50.69 24 51.172ZM28 47.172C28 48.18 27.18 49 26.172 49C25.691 49 25.219 48.805 24.879 48.465L21.535 45.121C21.195 44.781 21 44.31 21 43.828C21 42.82 21.82 42 22.828 42C23.309 42 23.781 42.195 24.121 42.535L27.465 45.879C27.805 46.219 28 46.69 28 47.172ZM33.086 46.5L32 47.586L29.402 44.988C29.874 44.574 30.426 44.281 31.025 44.128C31.054 44.345 31.136 44.551 31.293 44.707L33.086 46.5ZM36.414 35L29.707 28.293C29.316 27.902 28.684 27.902 28.293 28.293L27.121 29.465C25.172 31.414 25.172 34.586 27.121 36.535L31 40.414V42.093C29.872 42.284 28.834 42.793 27.986 43.571L25.535 41.12L22.428 38.013C23.433 36.919 24 35.51 24 34C24 32.49 23.433 31.081 22.428 29.986L39.985 12.429C41.081 13.433 42.49 14 44 14C45.51 14 46.919 13.433 48.014 12.428L53.571 17.985C52.567 19.081 52 20.49 52 22C52 23.51 52.567 24.919 53.572 26.014L44.586 35H36.414ZM54.981 24.604C54.351 23.884 54 22.971 54 22C54 21.029 54.351 20.116 54.981 19.396L57.586 22L54.981 24.604ZM46.604 11.019C45.165 12.281 42.836 12.281 41.397 11.019L44 8.41401L46.604 11.019ZM39.306 10.28L20.738 28.848L28.547 9.32401C29.29 9.75101 30.121 10 31 10C33.303 10 35.227 8.42701 35.806 6.30401L41.205 8.38101L39.306 10.28ZM32.555 5.05401L33.942 5.58801C33.668 6.96101 32.453 8.00001 31 8.00001C30.381 8.00001 29.792 7.81201 29.293 7.46001L30.562 4.28701L32.555 5.05401ZM19.244 27.197L16.957 12.904C19.257 12.455 21 10.429 21 8.00001C21 7.71901 20.969 7.44001 20.921 7.16401L27.642 6.20401L19.244 27.197ZM18.945 7.44601C18.981 7.63001 19 7.81401 19 8.00001C19 9.43901 17.981 10.646 16.643 10.934L16.149 7.84601L18.945 7.44601ZM17.798 30.813L17.153 32.426L9.45403 20.879C11.024 19.768 12 17.961 12 16C12 15.26 11.846 14.528 11.571 13.833L14.821 12.208L17.798 30.813Z" fill="white"/>
<path d="M45 27C45 23.691 42.309 21 39 21C35.691 21 33 23.691 33 27C33 30.309 35.691 33 39 33C42.309 33 45 30.309 45 27ZM39 31C36.794 31 35 29.206 35 27C35 24.794 36.794 23 39 23C41.206 23 43 24.794 43 27C43 29.206 41.206 31 39 31Z" fill="white"/>
<path d="M61 35C58.794 35 57 33.206 57 31C57 30.447 56.553 30 56 30C55.447 30 55 30.447 55 31C55 33.206 53.206 35 51 35C50.447 35 50 35.447 50 36C50 36.553 50.447 37 51 37C53.206 37 55 38.794 55 41C55 41.553 55.447 42 56 42C56.553 42 57 41.553 57 41C57 38.794 58.794 37 61 37C61.553 37 62 36.553 62 36C62 35.447 61.553 35 61 35ZM56 37.687C55.556 37.019 54.981 36.445 54.313 36C54.981 35.556 55.555 34.981 56 34.313C56.444 34.981 57.019 35.555 57.687 36C57.019 36.444 56.444 37.019 56 37.687Z" fill="white"/>
<path d="M2 39C2 39.553 2.447 40 3 40C5.757 40 8 42.243 8 45C8 45.553 8.447 46 9 46C9.553 46 10 45.553 10 45C10 42.243 12.243 40 15 40C15.553 40 16 39.553 16 39C16 38.447 15.553 38 15 38C12.243 38 10 35.757 10 33C10 32.447 9.553 32 9 32C8.447 32 8 32.447 8 33C8 35.757 5.757 38 3 38C2.447 38 2 38.447 2 39ZM9 36.603C9.591 37.583 10.417 38.41 11.397 39C10.417 39.591 9.59 40.417 9 41.397C8.409 40.417 7.583 39.591 6.603 39C7.583 38.409 8.409 37.583 9 36.603Z" fill="white"/>
</svg>
