<svg width="40" height="65" viewBox="0 0 40 65" fill="none" xmlns="http://www.w3.org/2000/svg">
<path d="M11.7931 34.0731L13.2448 32.1679C13.8236 31.3991 16.8977 27.2947 19.5454 22.7326V22.7548H35.9592V35.1409H1.85069V55.2187H17.4119V64.1843H21.4527V51.1779H5.8915V39.1817H40V18.714H21.6699C22.8033 16.2996 23.5852 13.9883 23.5852 12.2012C23.5852 4.78937 18.9585 0 11.7921 0C4.62572 0 0 4.79038 0 12.2022C0 18.3796 9.28882 30.7809 10.3505 32.1689L11.7931 34.0731ZM7.96444 12.2831C7.96444 10.1738 9.67471 8.46348 11.784 8.46348C13.8933 8.46348 15.6036 10.1738 15.6036 12.2831C15.6036 14.3924 13.8933 16.1026 11.784 16.1026C9.67471 16.1026 7.96444 14.3924 7.96444 12.2831Z" fill="white"/>
</svg>
