<svg width="57" height="55" viewBox="0 0 57 55" fill="none" xmlns="http://www.w3.org/2000/svg">
<g clip-path="url(#clip0_58_125)">
<path d="M55.632 34.1458C50.1737 34.1321 44.7131 34.1481 39.2548 34.1252C38.7395 34.1229 38.491 34.281 38.2721 34.7348C37.2848 36.7767 36.252 38.7979 35.2465 40.8329C35.0048 41.321 34.713 41.7587 34.1065 41.6969C33.5 41.6327 33.3017 41.1377 33.1649 40.6175C31.9246 35.8875 30.682 31.1552 29.4394 26.4252C29.3915 26.2442 29.3276 26.0677 29.225 25.7354C29.0586 26.0998 28.9537 26.3244 28.8557 26.5512C27.515 29.6679 26.1767 32.7846 24.836 35.9035C24.7973 35.9929 24.7813 36.1075 24.7152 36.1694C24.4325 36.4444 24.1726 36.8317 23.8328 36.9325C23.3791 37.0677 23.0394 36.6964 22.7954 36.3046C21.929 34.9135 21.0558 33.5248 20.1871 32.136C19.779 31.4852 19.3686 30.8321 18.9172 30.1125C18.7576 30.2958 18.6162 30.4448 18.4885 30.6052C17.6951 31.5929 16.8971 32.5714 16.1196 33.5706C15.8141 33.9671 15.4333 34.1389 14.9477 34.1389C10.3398 34.1367 5.72964 34.1344 1.11948 34.1458C0.56772 34.1458 0.25992 33.8433 0 33.4262C0 33.2681 0 33.11 0 32.9519C0.30324 32.3675 0.80712 32.2277 1.42956 32.23C5.68404 32.246 9.93852 32.2346 14.193 32.2506C14.5874 32.2506 14.8451 32.1383 15.089 31.8267C16.0603 30.5777 17.0567 29.3494 18.0485 28.1164C18.7211 27.28 19.4074 27.3144 19.9774 28.2196C21.0421 29.9085 22.0955 31.6021 23.1557 33.2933C23.2811 33.4904 23.411 33.6852 23.5912 33.9625C23.7508 33.6073 23.8762 33.3277 23.9993 33.0435C25.4562 29.6542 26.9131 26.2625 28.3678 22.8708C28.3928 22.8181 28.4156 22.7631 28.4362 22.7081C28.6163 22.2039 28.9241 21.8075 29.4986 21.835C30.112 21.8648 30.3331 22.3414 30.4699 22.8708C30.7549 23.98 31.0559 25.0846 31.3454 26.1914C32.3486 30.0071 33.3496 33.825 34.3528 37.6429C34.3801 37.7506 34.4303 37.8514 34.5032 38.0485C35.2283 36.5979 35.9168 35.2275 36.6031 33.8525C36.7194 33.6233 36.8494 33.401 36.9451 33.1627C37.2187 32.4958 37.6952 32.23 38.4248 32.2323C44.2024 32.2483 49.9822 32.2483 55.762 32.2323C56.3548 32.23 56.7241 32.4775 57 32.9519C57 33.11 57 33.2681 57 33.4262C56.7104 33.9831 56.2408 34.1481 55.632 34.1458ZM53.9562 23.3842C53.2312 25.0456 52.3898 26.6589 51.5804 28.286C51.3046 28.8406 50.787 29.0514 50.3173 28.8475C49.7975 28.6206 49.6219 28.1073 49.8659 27.5C49.9229 27.351 50.005 27.2158 50.0734 27.0737C50.7984 25.5819 51.5554 24.106 52.2394 22.5958C53.2676 20.3271 53.3064 17.93 53.0875 15.5008C52.8253 12.5789 52.1983 9.76249 50.6798 7.21415C48.9288 4.27394 46.455 2.31686 42.9552 1.94332C39.9798 1.62707 37.3715 2.59874 35.0983 4.46874C31.9063 7.09728 30.324 10.6287 29.5716 14.6002C29.5283 14.8317 29.5009 15.07 29.4371 15.2969C29.3071 15.7552 29.0198 16.0646 28.516 16.076C28.0052 16.0898 27.7043 15.7827 27.5789 15.3289C27.458 14.8935 27.4079 14.4375 27.3121 13.9929C26.4959 10.2483 24.9067 6.93457 21.8834 4.4504C18.1146 1.34978 12.9436 0.861653 9.00828 4.0379C7.239 5.46561 6.01008 7.30353 5.25768 9.41874C3.72552 13.7156 3.2148 18.1042 4.53264 22.5569C5.00688 24.161 5.7 25.6964 6.25404 27.28C6.37716 27.6283 6.43644 28.0775 6.31788 28.4052C6.23352 28.6412 5.77752 28.9231 5.53584 28.8842C5.20524 28.8269 4.788 28.5542 4.64436 28.2585C4.1952 27.3396 3.8646 26.3633 3.47472 25.4146C1.96536 21.7387 1.5846 17.9346 2.14548 14.0204C2.68356 10.2598 3.80304 6.73061 6.43416 3.87061C9.08808 0.987695 12.3872 -0.373555 16.3294 0.0756116C20.4904 0.552278 23.5866 2.79353 25.992 6.09582C26.9975 7.4754 27.7522 8.99249 28.3222 10.6035C28.3586 10.7067 28.4088 10.8029 28.4544 10.906C29.0381 9.71207 29.5351 8.51353 30.1826 7.40207C32.0659 4.16853 34.6765 1.7554 38.2949 0.577487C43.2402 -1.03126 48.4432 0.728737 51.4778 4.95686C53.279 7.47311 54.2777 10.2896 54.7337 13.3146C55.0894 15.6842 55.331 18.0721 54.85 20.4485C54.647 21.4477 54.3643 22.4514 53.9562 23.3842ZM10.6978 36.7423C11.156 36.5154 11.5642 36.6621 12.0133 37.2167C12.9002 38.3029 13.753 39.4212 14.6786 40.4754C18.6595 45.0083 23.126 49.0142 28.0098 52.5548C28.1375 52.6464 28.272 52.7312 28.4772 52.8687C29.3915 52.0919 30.3354 51.3219 31.2428 50.5129C35.8028 46.4567 40.0345 42.0887 43.776 37.2579C43.9493 37.0356 44.1978 36.7812 44.4486 36.7331C44.7313 36.6804 45.144 36.7537 45.3378 36.9371C45.5339 37.125 45.6023 37.5237 45.5909 37.8239C45.5818 38.0485 45.3811 38.2823 45.2261 38.4817C40.5566 44.4583 35.2397 49.8002 29.3573 54.5852C29.1635 54.741 28.9446 54.8694 28.7371 55.0114C28.5798 55.0114 28.4225 55.0114 28.2629 55.0114C25.723 53.0429 23.1169 51.1523 20.6636 49.0806C16.8925 45.8975 13.5067 42.3248 10.5176 38.39C9.9978 37.7071 10.0685 37.0562 10.6978 36.7423Z" fill="white"/>
</g>
<defs>
<clipPath id="clip0_58_125">
<rect width="57" height="55" fill="white"/>
</clipPath>
</defs>
</svg>
