<svg width="58" height="58" viewBox="0 0 58 58" fill="none" xmlns="http://www.w3.org/2000/svg">
<g clip-path="url(#clip0_50_265)">
<path d="M58 38.8657C58 33.6999 55.0248 29.2705 50.7274 27.061V22.2845C50.7274 21.2235 49.8589 20.3586 48.8008 20.3586H45.2137V17.3228C45.7387 17.1712 46.2186 16.9094 46.5504 16.4879C46.9617 15.965 47.136 15.3306 47.0339 14.6962L46.6831 12.4932C46.4789 11.2243 45.2173 10.3164 43.8099 10.56C43.368 10.63 42.9866 10.8356 42.6395 11.0938L40.2907 9.62655C40.2907 9.61562 40.298 9.60395 40.3023 9.59301C40.4715 8.95056 40.4081 8.28258 40.1135 7.71014C39.8072 7.12092 39.2975 6.70016 38.674 6.53754L36.514 5.9578C35.2903 5.63329 33.9318 6.46389 33.5767 7.79108C33.5468 7.90995 33.5694 8.03829 33.5541 8.1608L31.3117 8.5174C30.7261 7.31125 29.2859 6.71839 28.1286 7.24854L26.0991 8.18341C24.9739 8.70262 24.505 10.0714 24.9739 11.2972L23.2843 13.0488L20.5278 11.1193C19.6579 10.5133 18.451 10.7284 17.845 11.5991L15.1075 15.5129C10.3157 14.8632 5.34235 16.7869 2.38605 21.0222C-1.62034 26.754 -0.436796 34.5101 4.87054 38.8825L6.37494 36.7306C2.24969 33.1923 1.36075 27.0756 4.53801 22.5266C7.92163 17.6875 14.5882 16.5054 19.4325 19.8926C24.2695 23.2719 25.453 29.9451 22.0701 34.7886C18.8418 39.4032 12.6354 40.6451 7.86475 37.8025L6.35598 39.9589C12.3182 43.621 20.1596 42.1028 24.2206 36.2886C27.1813 32.0555 27.2827 26.7233 25.025 22.453L27.7669 18.5319C28.3729 17.6619 28.157 16.4551 27.2914 15.8491L24.4059 13.8306L25.771 12.4144C26.2034 12.7673 26.7299 12.9905 27.2907 12.9905C27.6152 12.9905 27.9324 12.9205 28.2248 12.7863L30.2565 11.85C31.0171 11.4948 31.448 10.7474 31.5304 9.92408L33.7546 9.57332C33.7852 9.63968 33.7852 9.70969 33.8231 9.77313C34.1367 10.3113 34.6275 10.6949 35.2014 10.8458L37.3614 11.4256C37.5466 11.4744 37.7427 11.5065 37.9353 11.5065C38.5398 11.5065 39.0947 11.2484 39.5359 10.8378L41.7907 12.2365C41.6777 12.5763 41.6281 12.9292 41.6813 13.2844L42.0364 15.4874C42.1874 16.4281 42.9195 17.1318 43.8639 17.3513V20.3491H40.5481C39.4914 20.3491 38.6185 21.214 38.6185 22.275V27.0515C34.3212 29.256 31.3496 33.6904 31.3496 38.8555C31.3496 45.8525 36.7605 51.5281 43.6174 52.0721V49.4439C38.2182 48.9189 33.985 44.4072 33.985 38.8635C33.985 32.9575 38.7695 28.1701 44.6784 28.1701C50.5845 28.1701 55.3726 32.9546 55.3726 38.8635C55.3726 44.5005 50.9921 49.0742 45.4602 49.4819V52.11C52.4418 51.7038 58 45.9531 58 38.8657ZM22.4377 17.6291C22.0694 18.1615 21.3387 18.2934 20.8049 17.9179C20.2799 17.5555 20.1479 16.8211 20.5234 16.2866C20.7779 15.9183 21.2031 15.8316 21.6202 15.8848L22.6966 14.3425L23.5162 14.9186L22.442 16.4572C22.6338 16.8321 22.6958 17.2609 22.4377 17.6291ZM29.7176 10.6927L27.6918 11.6276C27.3673 11.7785 26.9837 11.7012 26.6672 11.4861L27.1164 11.0216C27.3746 10.7532 27.3716 10.3208 27.0996 10.0663C26.8335 9.81105 26.4047 9.81542 26.1458 10.0852L26.1064 10.129C26.1684 9.78698 26.331 9.49092 26.6373 9.34726L28.6631 8.41093C28.7856 8.35478 28.9213 8.32269 29.0656 8.32269C29.3829 8.32269 29.657 8.49989 29.8889 8.74564L29.5943 8.79086C29.2057 8.85357 28.938 9.216 29 9.60686C29.0532 9.962 29.353 10.2092 29.7023 10.2092C29.7365 10.2092 29.7759 10.2056 29.8131 10.1975L30.1697 10.1392C30.0727 10.3718 29.9458 10.5869 29.7176 10.6927ZM38.8293 8.71575C38.4968 8.50208 38.0549 8.61147 37.847 8.94764C37.6355 9.28017 37.7413 9.71771 38.0738 9.92554L38.3611 10.1035C38.1497 10.2056 37.9163 10.2581 37.6968 10.1975L35.5332 9.61999C35.3939 9.57842 35.3064 9.44206 35.1934 9.34945L35.714 9.2685C36.1071 9.20652 36.3674 8.84336 36.3069 8.45249C36.25 8.05798 35.9022 7.76775 35.4953 7.85598L34.917 7.94714C35.1212 7.49356 35.4989 7.15738 35.9445 7.15738C36.0232 7.15738 36.1107 7.16467 36.1858 7.18801L38.3458 7.7641C38.6098 7.8414 38.841 8.02881 38.9802 8.29863C39.059 8.46124 39.0218 8.65741 39.0291 8.84409L38.8293 8.71575ZM43.2922 15.2978L42.9378 13.0948C42.9341 13.0547 42.9713 13.0153 42.9677 12.9817L43.1449 13.086C43.2623 13.1633 43.3906 13.199 43.5233 13.199C43.7611 13.199 43.9952 13.0744 44.1308 12.857C44.3386 12.5245 44.2336 12.0884 43.9011 11.8791C43.939 11.8682 43.9653 11.8259 44.0068 11.8186C44.0827 11.8069 44.1622 11.7975 44.2343 11.7975C44.8382 11.7975 45.3369 12.1774 45.4237 12.6908L45.7781 14.896C45.8197 15.1694 45.7439 15.4567 45.5513 15.6894C45.4726 15.7893 45.3216 15.8082 45.2152 15.8819V15.3911C45.2152 15.0148 44.9169 14.7151 44.5392 14.7151C44.1651 14.7151 43.8632 15.0148 43.8632 15.3911V16.0029C43.5722 15.8469 43.3454 15.6143 43.2922 15.2978ZM44.6784 25.7702C44.0324 25.7702 43.5088 25.2415 43.5088 24.5998C43.5088 24.1492 43.8026 23.8312 44.1767 23.6336V21.7551H45.1772V23.6336C45.5513 23.8312 45.8459 24.1492 45.8459 24.5998C45.8452 25.2415 45.3238 25.7702 44.6784 25.7702Z" fill="white"/>
</g>
<defs>
<clipPath id="clip0_50_265">
<rect width="58" height="58" fill="white"/>
</clipPath>
</defs>
</svg>
